# xmcd CD database file
#
# Track frame offsets:
#	200
#	16272
#	31270
#	44662
#	60740
#	75595
#	92097
#	113845
#	131750
#	153827
#	170052
#	187655
#
# Disc length: 2784 seconds
#
# Revision: 2
# Processed by: cddbd v1.4PL0 Copyright (c) Steve Scherf et al.
# Submitted via: CDex 1.40Release
#
DISCID=910ade0c
DTITLE=The Holmes Brothers - Promised Land
DYEAR=1997
DGENRE=Blues
TTITLE0=Promised Land
TTITLE1=Start Stoppin'
TTITLE2=Train Song
TTITLE3=Easy Access
TTITLE4=You're Good For Me
TTITLE5=You Got To Go
TTITLE6=And I Love Her
TTITLE7=There's A Train
TTITLE8=Got Myself Together
TTITLE9=Thank God For You
TTITLE10=The New and Improved Me
TTITLE11=I Surrender All
EXTD=YEAR: 1997 ID3G: 0
EXTT0=
EXTT1=
EXTT2=
EXTT3=
EXTT4=
EXTT5=
EXTT6=
EXTT7=
EXTT8=
EXTT9=
EXTT10=
EXTT11=
PLAYORDER=
